<?xml version="1.0" encoding="UTF-8" standalone="no"?><svg xmlns="http://www.w3.org/2000/svg" xmlns:xlink="http://www.w3.org/1999/xlink" contentScriptType="application/ecmascript" contentStyleType="text/css" height="622px" preserveAspectRatio="none" style="width:363px;height:622px;" version="1.1" viewBox="0 0 363 622" width="363px" zoomAndPan="magnify"><defs><filter height="300%" id="f12e1skic8k03w" width="300%" x="-1" y="-1"><feGaussianBlur result="blurOut" stdDeviation="2.0"/><feColorMatrix in="blurOut" result="blurOut2" type="matrix" values="0 0 0 0 0 0 0 0 0 0 0 0 0 0 0 0 0 0 .4 0"/><feOffset dx="4.0" dy="4.0" in="blurOut2" result="blurOut3"/><feBlend in="SourceGraphic" in2="blurOut3" mode="normal"/></filter></defs><g><text fill="#000000" font-family="sans-serif" font-size="18" lengthAdjust="spacingAndGlyphs" textLength="349" x="2" y="16.708">Phantom-Pilot - High-level Architecture</text><!--MD5=[bd0d3c2d865c9ff19a649fcf77cfea2b]
entity Desktop--><ellipse cx="169.5" cy="38.4531" fill="#FEFECE" filter="url(#f12e1skic8k03w)" rx="8" ry="8" style="stroke: #A80036; stroke-width: 1.5;"/><path d="M169.5,46.4531 L169.5,73.4531 M156.5,54.4531 L182.5,54.4531 M169.5,73.4531 L156.5,88.4531 M169.5,73.4531 L182.5,88.4531 " fill="none" filter="url(#f12e1skic8k03w)" style="stroke: #A80036; stroke-width: 1.5;"/><text fill="#000000" font-family="sans-serif" font-size="14" lengthAdjust="spacingAndGlyphs" textLength="89" x="125" y="106.9482">Race Control</text><text fill="#000000" font-family="sans-serif" font-size="14" lengthAdjust="spacingAndGlyphs" textLength="67" x="125" y="123.2451">(desktop)</text><!--MD5=[792a4e4d70421b6da5d5bc673e362207]
entity Car1--><polygon fill="#FEFECE" filter="url(#f12e1skic8k03w)" points="42,320.9531,52,310.9531,153,310.9531,153,363.5469,143,373.5469,42,373.5469,42,320.9531" style="stroke: #000000; stroke-width: 1.5;"/><line style="stroke: #000000; stroke-width: 1.5;" x1="143" x2="152" y1="320.9531" y2="311.9531"/><line style="stroke: #000000; stroke-width: 1.5;" x1="42" x2="143" y1="320.9531" y2="320.9531"/><line style="stroke: #000000; stroke-width: 1.5;" x1="143" x2="143" y1="320.9531" y2="373.5469"/><text fill="#000000" font-family="sans-serif" font-size="14" lengthAdjust="spacingAndGlyphs" textLength="37" x="57" y="343.9482">Pi #1</text><text fill="#000000" font-family="sans-serif" font-size="14" lengthAdjust="spacingAndGlyphs" textLength="71" x="57" y="360.2451">racecar.py</text><!--MD5=[4d5063d711d94cf740b6b14b7fd32677]
entity Car2--><polygon fill="#FEFECE" filter="url(#f12e1skic8k03w)" points="188,320.9531,198,310.9531,299,310.9531,299,363.5469,289,373.5469,188,373.5469,188,320.9531" style="stroke: #000000; stroke-width: 1.5;"/><line style="stroke: #000000; stroke-width: 1.5;" x1="289" x2="298" y1="320.9531" y2="311.9531"/><line style="stroke: #000000; stroke-width: 1.5;" x1="188" x2="289" y1="320.9531" y2="320.9531"/><line style="stroke: #000000; stroke-width: 1.5;" x1="289" x2="289" y1="320.9531" y2="373.5469"/><text fill="#000000" font-family="sans-serif" font-size="14" lengthAdjust="spacingAndGlyphs" textLength="37" x="203" y="343.9482">Pi #2</text><text fill="#000000" font-family="sans-serif" font-size="14" lengthAdjust="spacingAndGlyphs" textLength="71" x="203" y="360.2451">racecar.py</text><!--MD5=[7e30249aa5c5215755c5da2965844634]
entity Wifi--><path d="M133.6828,212.8163 C135.9959,206.3609 142.2102,205.3419 146.1779,211.1274 C149.0283,205.2405 154.1615,205.0852 157.2148,210.9367 C160.4009,203.7062 166.1841,203.4632 171.1507,208.9921 C175.8682,203.9161 180.2447,205.8372 182.1992,211.766 C186.3365,205.9448 192.6988,206.0783 196.5741,212.0844 C201.0513,206.0501 206.0238,208.2234 208.8026,213.8634 C216.5814,215.8461 218.6561,220.1698 214.7181,227.3078 C220.5915,234.9899 218.0908,242.165 208.2482,243.6098 C206.1867,251.2229 200.5419,252.3809 195.284,246.735 C191.9447,252.4768 188.4683,254.0659 183.5943,248.293 C181.3862,254.8272 175.4193,255.6067 171.1557,250.4869 C166.8466,257.0686 159.9643,256.6052 156.9532,249.1716 C152.3825,253.5202 146.7361,252.6665 144.7137,246.2692 C139.9625,252.1999 134.9195,251.286 132.2157,244.2896 C121.8184,242.7707 118.0653,237.5735 123.7116,227.787 C120.1881,219.7527 122.9772,211.3735 133.6828,212.8163 " fill="#FEFECE" style="stroke: #000000; stroke-width: 1.5;"/><text fill="#000000" font-family="sans-serif" font-size="14" lengthAdjust="spacingAndGlyphs" textLength="62" x="138.5" y="231.9482">Wi-Fi LAN</text><!--MD5=[11b74dc17c87a5bdca57a5ee4a45765a]
entity Hat1--><rect fill="#FEFECE" filter="url(#f12e1skic8k03w)" height="52.5938" style="stroke: #A80036; stroke-width: 1.5;" width="92" x="51.5" y="450.9531"/><rect fill="#FEFECE" height="5" style="stroke: #A80036; stroke-width: 1.5;" width="10" x="46.5" y="455.9531"/><rect fill="#FEFECE" height="5" style="stroke: #A80036; stroke-width: 1.5;" width="10" x="46.5" y="493.5469"/><text fill="#000000" font-family="sans-serif" font-size="14" lengthAdjust="spacingAndGlyphs" textLength="64" x="61.5" y="473.9482">PCA9685</text><text fill="#000000" font-family="sans-serif" font-size="14" lengthAdjust="spacingAndGlyphs" textLength="72" x="61.5" y="490.2451">Motor HAT</text><!--MD5=[bca87b024c8772a6a7cf32e66735d619]
entity Hat2--><rect fill="#FEFECE" filter="url(#f12e1skic8k03w)" height="52.5938" style="stroke: #A80036; stroke-width: 1.5;" width="92" x="197.5" y="450.9531"/><rect fill="#FEFECE" height="5" style="stroke: #A80036; stroke-width: 1.5;" width="10" x="192.5" y="455.9531"/><rect fill="#FEFECE" height="5" style="stroke: #A80036; stroke-width: 1.5;" width="10" x="192.5" y="493.5469"/><text fill="#000000" font-family="sans-serif" font-size="14" lengthAdjust="spacingAndGlyphs" textLength="64" x="207.5" y="473.9482">PCA9685</text><text fill="#000000" font-family="sans-serif" font-size="14" lengthAdjust="spacingAndGlyphs" textLength="72" x="207.5" y="490.2451">Motor HAT</text><!--MD5=[0e3b6a69a33bdd8ff9ad54b1ba1e5e09]
entity Motors1--><path d="M51,574.9531 C51,564.9531 97.5,564.9531 97.5,564.9531 C97.5,564.9531 144,564.9531 144,574.9531 L144,600.25 C144,610.25 97.5,610.25 97.5,610.25 C97.5,610.25 51,610.25 51,600.25 L51,574.9531 " fill="#FEFECE" filter="url(#f12e1skic8k03w)" style="stroke: #000000; stroke-width: 1.5;"/><path d="M51,574.9531 C51,584.9531 97.5,584.9531 97.5,584.9531 C97.5,584.9531 144,584.9531 144,574.9531 " fill="none" style="stroke: #000000; stroke-width: 1.5;"/><text fill="#000000" font-family="sans-serif" font-size="14" lengthAdjust="spacingAndGlyphs" textLength="73" x="61" y="601.9482">DC Motors</text><!--MD5=[c9c6539517612f40fc9d438525738540]
entity Motors2--><path d="M197,574.9531 C197,564.9531 243.5,564.9531 243.5,564.9531 C243.5,564.9531 290,564.9531 290,574.9531 L290,600.25 C290,610.25 243.5,610.25 243.5,610.25 C243.5,610.25 197,610.25 197,600.25 L197,574.9531 " fill="#FEFECE" filter="url(#f12e1skic8k03w)" style="stroke: #000000; stroke-width: 1.5;"/><path d="M197,574.9531 C197,584.9531 243.5,584.9531 243.5,584.9531 C243.5,584.9531 290,584.9531 290,574.9531 " fill="none" style="stroke: #000000; stroke-width: 1.5;"/><text fill="#000000" font-family="sans-serif" font-size="14" lengthAdjust="spacingAndGlyphs" textLength="73" x="207" y="601.9482">DC Motors</text><!--MD5=[d0d55cd602ac19a0c0fabe89fdf9844c]
link Desktop to Wifi--><path d="M169.5,127.0831 C169.5,150.7631 169.5,178.4331 169.5,198.4731 " fill="none" id="Desktop-&gt;Wifi" style="stroke: #A80036; stroke-width: 1.0;"/><polygon fill="#A80036" points="169.5,203.6531,173.5,194.6531,169.5,198.6531,165.5,194.6531,169.5,203.6531" style="stroke: #A80036; stroke-width: 1.0;"/><text fill="#000000" font-family="sans-serif" font-size="13" lengthAdjust="spacingAndGlyphs" textLength="102" x="170.5" y="170.02">SSH (paramiko)</text><!--MD5=[3706f76eccd7482186c69f0f79f28ac2]
link Wifi to Car1--><path d="M155.45,250.1031 C145.34,266.0431 131.49,287.8731 119.87,306.1931 " fill="none" id="Wifi-&gt;Car1" style="stroke: #A80036; stroke-width: 1.0;"/><polygon fill="#A80036" points="116.96,310.7731,125.1569,305.3133,119.637,306.5501,118.4001,301.0301,116.96,310.7731" style="stroke: #A80036; stroke-width: 1.0;"/><!--MD5=[b8839c18d502d80d90a015d8ead5fe6a]
link Wifi to Car2--><path d="M183.94,250.1031 C194.34,266.0431 208.57,287.8731 220.51,306.1931 " fill="none" id="Wifi-&gt;Car2" style="stroke: #A80036; stroke-width: 1.0;"/><polygon fill="#A80036" points="223.49,310.7731,221.9261,301.0492,220.7595,306.5845,215.2243,305.418,223.49,310.7731" style="stroke: #A80036; stroke-width: 1.0;"/><!--MD5=[a1e9dd3d10cb082b4e5434e91c9de531]
link Car1 to Hat1--><path d="M97.5,373.9631 C97.5,395.4031 97.5,423.9931 97.5,445.5231 " fill="none" id="Car1-&gt;Hat1" style="stroke: #A80036; stroke-width: 1.0;"/><polygon fill="#A80036" points="97.5,450.5631,101.5,441.5631,97.5,445.5631,93.5,441.5631,97.5,450.5631" style="stroke: #A80036; stroke-width: 1.0;"/><text fill="#000000" font-family="sans-serif" font-size="13" lengthAdjust="spacingAndGlyphs" textLength="51" x="98.5" y="417.02">I²C PWM</text><!--MD5=[bd0f5b2f8b17a161472692ca928de3e7]
link Car2 to Hat2--><path d="M243.5,373.9631 C243.5,395.4031 243.5,423.9931 243.5,445.5231 " fill="none" id="Car2-&gt;Hat2" style="stroke: #A80036; stroke-width: 1.0;"/><polygon fill="#A80036" points="243.5,450.5631,247.5,441.5631,243.5,445.5631,239.5,441.5631,243.5,450.5631" style="stroke: #A80036; stroke-width: 1.0;"/><text fill="#000000" font-family="sans-serif" font-size="13" lengthAdjust="spacingAndGlyphs" textLength="51" x="244.5" y="417.02">I²C PWM</text><!--MD5=[434b5e9bb945a0e3bc6f8799b9e42d4f]
link Hat1 to Motors1--><path d="M97.5,504.0431 C97.5,520.7831 97.5,542.6031 97.5,559.5831 " fill="none" id="Hat1-&gt;Motors1" style="stroke: #A80036; stroke-width: 1.0;"/><polygon fill="#A80036" points="97.5,564.6831,101.5,555.6831,97.5,559.6831,93.5,555.6831,97.5,564.6831" style="stroke: #A80036; stroke-width: 1.0;"/><!--MD5=[4bc26fa626d4bf909e2b1643aae0549a]
link Hat2 to Motors2--><path d="M243.5,504.0431 C243.5,520.7831 243.5,542.6031 243.5,559.5831 " fill="none" id="Hat2-&gt;Motors2" style="stroke: #A80036; stroke-width: 1.0;"/><polygon fill="#A80036" points="243.5,564.6831,247.5,555.6831,243.5,559.6831,239.5,555.6831,243.5,564.6831" style="stroke: #A80036; stroke-width: 1.0;"/><!--MD5=[bc7898ca1459c67bfa427b13afd65cf5]
@startuml architecture
title Phantom-Pilot - High-level Architecture

actor "Race Control\n(desktop)" as Desktop
node "Pi #1\nracecar.py" as Car1
node "Pi #2\nracecar.py" as Car2
cloud "Wi-Fi LAN" as Wifi
component "PCA9685\nMotor HAT" as Hat1
component "PCA9685\nMotor HAT" as Hat2
database "DC Motors" as Motors1
database "DC Motors" as Motors2

Desktop - -> Wifi : SSH (paramiko)
Wifi - -> Car1
Wifi - -> Car2
Car1 - -> Hat1 : I²C PWM
Car2 - -> Hat2 : I²C PWM
Hat1 - -> Motors1
Hat2 - -> Motors2
@enduml

PlantUML version 1.2020.02(Sun Mar 01 02:22:07 PST 2020)
(GPL source distribution)
Java Runtime: OpenJDK Runtime Environment
JVM: OpenJDK 64-Bit Server VM
Java Version: 11.0.26+4-post-Ubuntu-1ubuntu122.04
Operating System: Linux
Default Encoding: UTF-8
Language: en
Country: null
--></g></svg>